# File created by Blade
# Date/Time:  Tue Apr 07 20:53:11 2015
# Frame Rate: 120.000 fps
#------------------------------------------------------
:FULLY-SPECIFIED
:DEGREES
311
root -30.236931 32.725721 4.868783 17.859652 -77.184146 -14.818669
Spine -12.850384 -11.649332 0.932495
Head 28.761174 -6.292238 2.563003
LeftShoulder -15.939681 18.054027 46.412994
LeftArm 127.126754 -58.631750 -86.955951
LeftForeArm 17.018502 -0.000000 36.271437
LeftHand 16.713931 -0.000000 23.314045
LeftHandThumb1 -26.253704 0.000000 33.147579
RightShoulder -21.036866 32.262887 -60.905781
RightArm 52.938838 28.685424 38.006719
RightForeArm -15.287731 -0.000000 30.488761
RightHand 27.702887 0.000000 -41.006735
RightHandThumb1 -24.326973 -0.000000 -32.862282
LeftUpLeg 2.730094 -8.525095 0.627144
LeftLeg 21.515655 -0.000000 -0.000000
LeftFoot -27.631284 8.751767 -23.387485
LeftToeBase -9.109517 -0.000000 0.000000
RightUpLeg -8.614664 -8.175911 9.785076
RightLeg -7.893099 -0.000000 0.000000
RightFoot 8.421850 -13.033548 11.192354
RightToeBase -0.186236 -0.000000 0.000000
312
root -30.222564 32.718678 4.877620 18.037491 -77.166431 -14.993830
Spine -12.857747 -11.628984 1.044464
Head 28.796327 -6.241795 2.466064
LeftShoulder -15.983336 18.054066 46.387633
LeftArm 127.272640 -58.678864 -87.022363
LeftForeArm 17.280159 -0.000000 35.976736
LeftHand 16.833677 -0.000000 23.531198
LeftHandThumb1 -26.253704 0.000000 33.147579
RightShoulder -21.050241 32.155587 -60.965512
RightArm 53.070796 28.733691 37.992700
RightForeArm -15.011585 -0.000000 30.368590
RightHand 27.626179 0.000000 -41.224324
RightHandThumb1 -24.326973 -0.000000 -32.862282
LeftUpLeg 2.603357 -8.636332 0.663934
LeftLeg 22.399686 -0.000000 -0.000000
LeftFoot -27.663154 8.181315 -23.635813
LeftToeBase -9.277019 -0.000000 0.000000
RightUpLeg -8.594936 -8.173000 9.808363
RightLeg -8.010406 -0.000000 0.000000
RightFoot 8.516432 -13.041198 11.162497
RightToeBase -0.283217 -0.000000 0.000000
313
root -30.201773 32.710607 4.887418 18.309981 -77.186731 -15.246167
Spine -12.885166 -11.555176 1.171252
Head 28.839321 -6.196070 2.348057
LeftShoulder -16.043066 18.111995 46.351350
LeftArm 127.485323 -58.704514 -87.163532
LeftForeArm 17.496983 -0.000000 35.686438
LeftHand 16.923047 -0.000000 23.683774
LeftHandThumb1 -26.253704 0.000000 33.147579
RightShoulder -21.086924 32.111551 -61.048120
RightArm 53.207489 28.743231 38.012293
RightForeArm -14.680381 -0.000000 30.216978
RightHand 27.577185 -0.000000 -41.235695
RightHandThumb1 -24.326973 -0.000000 -32.862282
LeftUpLeg 2.478448 -8.690185 0.703268
LeftLeg 23.293650 -0.000000 -0.000000
LeftFoot -27.683618 7.760764 -23.715379
LeftToeBase -9.129190 -0.000000 0.000000
RightUpLeg -8.630131 -8.240633 9.867422
RightLeg -8.076927 -0.000000 0.000000
RightFoot 8.638745 -12.952173 11.024866
RightToeBase -0.350256 -0.000000 0.000000
314
root -30.178461 32.702618 4.898003 18.531375 -77.249293 -15.452046
Spine -12.917397 -11.432739 1.263697
Head 28.914959 -6.146001 2.246511
LeftShoulder -16.091032 18.138010 46.340228
LeftArm 127.471511 -58.825355 -87.064925
LeftForeArm 17.508384 -0.000000 35.384501
LeftHand 17.016555 0.000000 23.873934
LeftHandThumb1 -26.253704 0.000000 33.147579
RightShoulder -21.138476 32.059581 -61.106387
RightArm 53.459672 28.750892 38.127279
RightForeArm -14.458020 -0.000000 29.962305
RightHand 27.570858 -0.000000 -41.272316
RightHandThumb1 -24.326973 -0.000000 -32.862282
LeftUpLeg 2.359747 -8.720612 0.694205
LeftLeg 24.227972 -0.000000 -0.000000
LeftFoot -27.623016 7.461346 -23.835674
LeftToeBase -9.532654 -0.000000 0.000000
RightUpLeg -8.657220 -8.312660 9.912475
RightLeg -8.155472 -0.000000 0.000000
RightFoot 8.792101 -12.837072 10.847228
RightToeBase -0.867130 -0.000000 0.000000
315
root -30.150711 32.694398 4.909511 18.836046 -77.353235 -15.748993
Spine -12.945039 -11.278169 1.368104
Head 28.993857 -6.099545 2.123721
LeftShoulder -16.112780 18.133920 46.332568
LeftArm 127.355793 -58.997861 -86.882392
LeftForeArm 17.522861 -0.000000 35.107949
LeftHand 17.097423 0.000000 24.030417
LeftHandThumb1 -26.253704 0.000000 33.147579
RightShoulder -21.191143 32.028933 -61.146113
RightArm 53.806462 28.794720 38.356309
RightForeArm -14.380495 -0.000000 29.697432
RightHand 27.373888 -0.000000 -41.226343
RightHandThumb1 -24.326973 -0.000000 -32.862282
LeftUpLeg 2.283358 -8.761717 0.681324
LeftLeg 25.110529 -0.000000 -0.000000
LeftFoot -27.536624 7.247122 -23.927389
LeftToeBase -9.914275 -0.000000 0.000000
RightUpLeg -8.703199 -8.393706 9.971745
RightLeg -8.196572 -0.000000 0.000000
RightFoot 8.927607 -12.671624 10.731281
RightToeBase -0.931323 -0.000000 0.000000
316
root -30.118293 32.685992 4.921567 19.175708 -77.489147 -16.092173
Spine -12.966534 -11.106783 1.469025
Head 29.094333 -5.998403 2.015821
LeftShoulder -16.171494 18.279604 46.320325
LeftArm 127.557576 -59.064470 -87.033643
LeftForeArm 17.648667 -0.000000 34.830548
LeftHand 17.218683 -0.000000 24.195330
LeftHandThumb1 -26.253704 0.000000 33.147579
RightShoulder -21.224653 32.088518 -61.181950
RightArm 54.105508 28.773891 38.519757
RightForeArm -14.333748 0.000000 29.380380
RightHand 27.339653 -0.000000 -41.207609
RightHandThumb1 -24.326973 -0.000000 -32.862282
LeftUpLeg 2.252668 -8.696901 0.671144
LeftLeg 25.879185 -0.000000 -0.000000
LeftFoot -27.423941 7.208237 -23.950763
LeftToeBase -9.965425 -0.000000 0.000000
RightUpLeg -8.750238 -8.450601 10.028407
RightLeg -8.230964 -0.000000 0.000000
RightFoot 9.063467 -12.537145 10.627925
RightToeBase -1.004359 -0.000000 0.000000
